<svg width="12" height="12" viewBox="0 0 12 12" fill="none" xmlns="http://www.w3.org/2000/svg">
<g clip-path="url(#clip0_507_13810)">
<path d="M0.75 2C0.75 1.4475 1.1975 1 1.75 1C2.3025 1 2.75 1.4475 2.75 2C2.75 2.5525 2.3025 3 1.75 3C1.1975 3 0.75 2.5525 0.75 2ZM3.5 4.5C3.5 3.9485 3.0515 3.5 2.5 3.5H1C0.4485 3.5 0 3.9485 0 4.5V5H3.5V4.5ZM10.25 3C10.8025 3 11.25 2.5525 11.25 2C11.25 1.4475 10.8025 1 10.25 1C9.6975 1 9.25 1.4475 9.25 2C9.25 2.5525 9.6975 3 10.25 3ZM12 4.5C12 3.9485 11.5515 3.5 11 3.5H9.5C8.9485 3.5 8.5 3.9485 8.5 4.5V5H12V4.5ZM6 2C6.5525 2 7 1.5525 7 1C7 0.4475 6.5525 0 6 0C5.4475 0 5 0.4475 5 1C5 1.5525 5.4475 2 6 2ZM7.75 3.5C7.75 2.9485 7.3015 2.5 6.75 2.5H5.25C4.6985 2.5 4.25 2.9485 4.25 3.5V4H7.75V3.5ZM7 5.5535C7 5.0555 6.6595 4.5935 6.168 4.5135C5.5415 4.4115 5 4.8925 5 5.5V9.9085C4.462 9.4655 3.9445 9.0325 3.9275 9.0165C3.4665 8.586 2.741 8.61 2.31 9.071C1.8785 9.5325 1.9005 10.257 2.359 10.686L3.802 12.0325L11.5 12V9.75L7 7.981V5.5535Z" fill="white"/>
</g>
<defs>
<clipPath id="clip0_507_13810">
<rect width="12" height="12" fill="white"/>
</clipPath>
</defs>
</svg>
