<svg width="18" height="18" viewBox="0 0 18 18" fill="none" xmlns="http://www.w3.org/2000/svg">
<path d="M15.25 2.125H2.75C1.71447 2.125 0.875 2.96447 0.875 4V15.25C0.875 16.2855 1.71447 17.125 2.75 17.125H15.25C16.2855 17.125 17.125 16.2855 17.125 15.25V4C17.125 2.96447 16.2855 2.125 15.25 2.125Z" stroke="#666666" stroke-width="1.25" stroke-linejoin="round"/>
<path d="M10.5625 9C11.0803 9 11.5 8.58027 11.5 8.0625C11.5 7.54473 11.0803 7.125 10.5625 7.125C10.0447 7.125 9.625 7.54473 9.625 8.0625C9.625 8.58027 10.0447 9 10.5625 9Z" fill="#666666"/>
<path d="M13.6875 9C14.2053 9 14.625 8.58027 14.625 8.0625C14.625 7.54473 14.2053 7.125 13.6875 7.125C13.1697 7.125 12.75 7.54473 12.75 8.0625C12.75 8.58027 13.1697 9 13.6875 9Z" fill="#666666"/>
<path d="M10.5625 12.125C11.0803 12.125 11.5 11.7053 11.5 11.1875C11.5 10.6697 11.0803 10.25 10.5625 10.25C10.0447 10.25 9.625 10.6697 9.625 11.1875C9.625 11.7053 10.0447 12.125 10.5625 12.125Z" fill="#666666"/>
<path d="M13.6875 12.125C14.2053 12.125 14.625 11.7053 14.625 11.1875C14.625 10.6697 14.2053 10.25 13.6875 10.25C13.1697 10.25 12.75 10.6697 12.75 11.1875C12.75 11.7053 13.1697 12.125 13.6875 12.125Z" fill="#666666"/>
<path d="M4.3125 12.125C4.83027 12.125 5.25 11.7053 5.25 11.1875C5.25 10.6697 4.83027 10.25 4.3125 10.25C3.79473 10.25 3.375 10.6697 3.375 11.1875C3.375 11.7053 3.79473 12.125 4.3125 12.125Z" fill="#666666"/>
<path d="M7.4375 12.125C7.95527 12.125 8.375 11.7053 8.375 11.1875C8.375 10.6697 7.95527 10.25 7.4375 10.25C6.91973 10.25 6.5 10.6697 6.5 11.1875C6.5 11.7053 6.91973 12.125 7.4375 12.125Z" fill="#666666"/>
<path d="M4.3125 15.25C4.83027 15.25 5.25 14.8303 5.25 14.3125C5.25 13.7947 4.83027 13.375 4.3125 13.375C3.79473 13.375 3.375 13.7947 3.375 14.3125C3.375 14.8303 3.79473 15.25 4.3125 15.25Z" fill="#666666"/>
<path d="M7.4375 15.25C7.95527 15.25 8.375 14.8303 8.375 14.3125C8.375 13.7947 7.95527 13.375 7.4375 13.375C6.91973 13.375 6.5 13.7947 6.5 14.3125C6.5 14.8303 6.91973 15.25 7.4375 15.25Z" fill="#666666"/>
<path d="M10.5625 15.25C11.0803 15.25 11.5 14.8303 11.5 14.3125C11.5 13.7947 11.0803 13.375 10.5625 13.375C10.0447 13.375 9.625 13.7947 9.625 14.3125C9.625 14.8303 10.0447 15.25 10.5625 15.25Z" fill="#666666"/>
<path fill-rule="evenodd" clip-rule="evenodd" d="M4 0.25C3.65483 0.25 3.375 0.529825 3.375 0.875V2.125C3.375 2.47018 3.65483 2.75 4 2.75C4.34518 2.75 4.625 2.47018 4.625 2.125V0.875C4.625 0.529825 4.34518 0.25 4 0.25ZM14 0.25C13.6548 0.25 13.375 0.529825 13.375 0.875V2.125C13.375 2.47018 13.6548 2.75 14 2.75C14.3452 2.75 14.625 2.47018 14.625 2.125V0.875C14.625 0.529825 14.3452 0.25 14 0.25Z" fill="#666666"/>
<path d="M17.125 5.875H0.875V4.625H17.125V5.875Z" fill="#666666"/>
</svg>
