<?xml version="1.0" encoding="utf-8"?>
<!-- Generator: Adobe Illustrator 25.2.0, SVG Export Plug-In . SVG Version: 6.00 Build 0)  -->
<svg version="1.1" id="Layer_1" xmlns="http://www.w3.org/2000/svg" xmlns:xlink="http://www.w3.org/1999/xlink" x="0px" y="0px"
	 viewBox="0 0 812 137" style="enable-background:new 0 0 812 137;" xml:space="preserve">
<style type="text/css">
	.st0{fill:#FFFFFF;}
	.st1{fill:#4391EA;}
	.st2{enable-background:new    ;}
	.st3{fill:none;stroke:#185189;stroke-miterlimit:10;}
</style>
<g>
	<path class="st0" d="M62.1,56.6l-5-5c0.2-0.2,0.5-0.5,0.7-0.7c14-12.8,32.7-20.6,53.1-20.6v-6.8c0,0-84.5,1.4-85.5,89.1H111V91.5
		c-3.5,0-6.8,1.2-9.4,3.3c-0.3,0.2-0.6,0.4-0.8,0.6l-4.9-4.9c0.2-0.3,0.5-0.5,0.7-0.7c3.9-3.3,8.9-5.3,14.4-5.3v-6.1
		c-7.2,0.1-13.9,2.5-19.2,6.7c-0.3,0.2-0.6,0.4-0.8,0.6l-5-5c0.3-0.2,0.5-0.4,0.8-0.6c6.6-5.4,15-8.7,24.2-8.7V65
		c-10.9,0-20.9,3.9-28.7,10.5c-0.3,0.3-0.6,0.5-0.8,0.7l-5-5c0.3-0.3,0.5-0.5,0.8-0.7c9.1-7.8,20.8-12.6,33.7-12.6v-6.6
		c-14.7,0-28.2,5.5-38.4,14.5c-0.3,0.2-0.6,0.5-0.8,0.7l-4.9-5c0.3-0.3,0.6-0.5,0.8-0.7C79.2,50.6,94.4,44.3,111,44.3v-6.9
		c-18.5,0-35.4,7-48.2,18.5C62.6,56.1,62.3,56.4,62.1,56.6z"/>
	<path class="st1" d="M127,0H10C4.5,0,0,4.5,0,10v117c0,5.5,4.5,10,10,10h117c5.5,0,10-4.5,10-10V10C137,4.5,132.5,0,127,0z
		 M111,44.3c-16.6,0-31.8,6.3-43.3,16.5c-0.2,0.2-0.5,0.4-0.8,0.7l4.9,5c0.2-0.2,0.5-0.5,0.8-0.7c10.2-9,23.7-14.5,38.4-14.5v6.6
		c-12.9,0-24.6,4.8-33.7,12.6c-0.3,0.2-0.5,0.4-0.8,0.7l5,5c0.2-0.2,0.5-0.4,0.8-0.7C90.1,68.9,100.1,65,111,65v6.4
		c-9.2,0-17.6,3.3-24.2,8.7c-0.3,0.2-0.5,0.4-0.8,0.6l5,5c0.2-0.2,0.5-0.4,0.8-0.6c5.3-4.2,12-6.6,19.2-6.7v6.1
		c-5.5,0-10.5,2-14.4,5.3c-0.2,0.2-0.5,0.4-0.7,0.7l4.9,4.9c0.2-0.2,0.5-0.4,0.8-0.6c2.6-2.1,5.9-3.3,9.4-3.3v21.1H25.4
		c1-87.7,85.5-89.1,85.5-89.1v6.8c-20.4,0-39.1,7.8-53.1,20.6c-0.2,0.2-0.5,0.5-0.7,0.7l5,5c0.2-0.2,0.5-0.5,0.7-0.7
		C75.6,44.4,92.5,37.4,111,37.4V44.3z"/>
</g>
<g class="st2">
	<path class="st1" d="M194.1,115.8V22h63v16h-44.7v24.2h37.2V77h-37.2v38.8H194.1z"/>
	<path class="st1" d="M267.5,19.4h17.7v73.4c0,5.4,2.4,8.1,7.3,8.1c1,0,2.1-0.2,3.4-0.5c1.3-0.4,2.5-0.7,3.6-1.2l2.4,14.1
		c-2.4,1.1-5.1,2-8.3,2.6c-3.2,0.6-6,0.9-8.6,0.9c-5.5,0-9.8-1.5-12.9-4.4c-3-2.9-4.6-7.1-4.6-12.6V19.4z"/>
	<path class="st1" d="M341.7,117.1c-5.5,0-10.6-0.9-15-2.8c-4.5-1.9-8.3-4.5-11.5-7.7c-3.2-3.3-5.6-7-7.3-11.4
		c-1.7-4.3-2.6-8.8-2.6-13.6c0-4.9,0.8-9.6,2.5-13.9c1.7-4.4,4.1-8.2,7.3-11.5c3.2-3.3,7-5.9,11.6-7.9c4.5-1.9,9.6-2.9,15.2-2.9
		c5.6,0,10.7,1,15.1,2.9c4.4,1.9,8.2,4.5,11.4,7.8c3.1,3.3,5.5,7,7.1,11.4c1.6,4.3,2.4,8.8,2.4,13.5c0,1.1,0,2.2-0.1,3.3
		c0,1.1-0.2,1.9-0.3,2.6H324c0.3,2.7,0.9,5.1,2,7.3c1.1,2.1,2.4,3.9,4.1,5.4c1.7,1.5,3.6,2.6,5.7,3.4s4.3,1.2,6.6,1.2
		c3.5,0,6.8-0.9,10-2.6c3.1-1.7,5.3-4,6.4-6.8l15.2,4.2c-2.6,5.3-6.6,9.6-12.2,13C356.1,115.4,349.5,117.1,341.7,117.1z M359.7,75.4
		c-0.4-5.2-2.4-9.3-5.7-12.5c-3.4-3.1-7.5-4.7-12.3-4.7c-2.4,0-4.6,0.4-6.7,1.3c-2.1,0.8-3.9,2-5.5,3.5c-1.6,1.5-2.9,3.3-3.9,5.4
		c-1,2.1-1.6,4.4-1.8,7H359.7z"/>
	<path class="st1" d="M420.9,117.1c-5.5,0-10.6-0.9-15-2.8c-4.5-1.9-8.3-4.5-11.5-7.7c-3.2-3.3-5.6-7-7.3-11.4
		c-1.7-4.3-2.6-8.8-2.6-13.6c0-4.9,0.8-9.6,2.5-13.9c1.7-4.4,4.1-8.2,7.3-11.5c3.2-3.3,7-5.9,11.6-7.9c4.5-1.9,9.6-2.9,15.2-2.9
		c5.6,0,10.7,1,15.1,2.9c4.4,1.9,8.2,4.5,11.4,7.8c3.1,3.3,5.5,7,7.1,11.4c1.6,4.3,2.4,8.8,2.4,13.5c0,1.1,0,2.2-0.1,3.3
		c0,1.1-0.2,1.9-0.3,2.6h-53.5c0.3,2.7,0.9,5.1,2,7.3c1.1,2.1,2.4,3.9,4.1,5.4c1.7,1.5,3.6,2.6,5.7,3.4c2.1,0.8,4.3,1.2,6.6,1.2
		c3.5,0,6.8-0.9,10-2.6c3.1-1.7,5.3-4,6.4-6.8l15.2,4.2c-2.6,5.3-6.6,9.6-12.2,13C435.3,115.4,428.7,117.1,420.9,117.1z M438.9,75.4
		c-0.4-5.2-2.4-9.3-5.7-12.5c-3.4-3.1-7.5-4.7-12.3-4.7c-2.4,0-4.6,0.4-6.7,1.3c-2.1,0.8-3.9,2-5.5,3.5c-1.6,1.5-2.9,3.3-3.9,5.4
		c-1,2.1-1.6,4.4-1.8,7H438.9z"/>
	<path class="st1" d="M508.8,112.2c-2.4,1.1-5.3,2.1-8.8,3.2c-3.5,1.1-7.1,1.6-10.9,1.6c-2.5,0-4.8-0.3-6.9-0.9
		c-2.2-0.6-4-1.6-5.7-3c-1.6-1.4-2.9-3.1-3.9-5.3c-1-2.2-1.5-4.8-1.5-7.9V60.2h-9V46.6h9V24.1h17.7v22.4h14.7v13.6h-14.7V94
		c0,2.5,0.7,4.2,2,5.2c1.3,1,2.9,1.5,4.8,1.5s3.7-0.3,5.4-0.9c1.8-0.6,3.2-1.1,4.2-1.6L508.8,112.2z"/>
	<path class="st1" d="M557,117.1c-5.3,0-10-1.2-14.1-3.6c-4.1-2.4-7.4-5.6-9.8-9.8v12h-15.4V19.4h17.7v39.3c2.5-4.2,5.7-7.5,9.7-9.8
		c4-2.3,8.6-3.5,13.9-3.5c4.5,0,8.6,1,12.3,2.9c3.7,1.9,7,4.5,9.6,7.8c2.7,3.3,4.8,7.1,6.2,11.5c1.5,4.4,2.2,9,2.2,13.9
		c0,5-0.8,9.7-2.4,14c-1.6,4.3-3.9,8.1-6.8,11.3c-2.9,3.2-6.3,5.7-10.3,7.6C565.8,116.2,561.6,117.1,557,117.1z M552.1,102
		c2.8,0,5.4-0.5,7.7-1.7c2.3-1.1,4.4-2.6,6.1-4.4c1.7-1.8,3-4,4-6.5c0.9-2.5,1.4-5.1,1.4-7.9c0-2.8-0.4-5.5-1.3-8.1
		c-0.9-2.6-2.1-4.8-3.8-6.7c-1.6-1.9-3.5-3.5-5.7-4.6c-2.2-1.1-4.6-1.7-7.3-1.7c-4,0-7.5,1.3-10.6,3.9c-3.1,2.6-5.5,5.8-7.2,9.6
		v16.5c0.6,1.8,1.5,3.3,2.7,4.8c1.2,1.4,2.5,2.6,4,3.6c1.5,1,3.1,1.8,4.9,2.4C548.7,101.7,550.4,102,552.1,102z"/>
	<path class="st1" d="M620.2,117.1c-3.3,0-6.5-0.6-9.4-1.7s-5.4-2.6-7.5-4.6c-2.1-2-3.8-4.3-5-6.9c-1.2-2.6-1.8-5.5-1.8-8.7
		c0-3.3,0.7-6.3,2.2-9c1.5-2.8,3.5-5.1,6.1-7.1c2.6-1.9,5.7-3.5,9.3-4.6c3.6-1.1,7.6-1.7,11.9-1.7c3.1,0,6.1,0.3,9,0.8
		c2.9,0.5,5.6,1.3,7.9,2.2v-4c0-4.6-1.3-8.1-3.9-10.6c-2.6-2.5-6.4-3.7-11.5-3.7c-3.7,0-7.3,0.7-10.8,2c-3.5,1.3-7.1,3.3-10.8,5.8
		l-5.4-11.2c8.9-5.9,18.5-8.8,28.8-8.8c9.9,0,17.7,2.4,23.2,7.3c5.5,4.9,8.2,11.9,8.2,21.2v21.5c0,1.8,0.4,3.2,1.1,4
		c0.7,0.8,1.9,1.2,3.7,1.3v15c-1.7,0.4-3.2,0.6-4.7,0.7c-1.5,0.1-2.7,0.2-3.8,0.2c-3.3-0.1-5.9-0.9-7.7-2.3
		c-1.8-1.5-2.9-3.4-3.3-5.9l-0.4-3.8c-3.1,4-6.8,7.1-11.2,9.2C630,116,625.2,117.1,620.2,117.1z M625.2,104.1c3,0,5.8-0.5,8.5-1.6
		c2.7-1.1,4.8-2.5,6.3-4.2c1.9-1.5,2.9-3.2,2.9-5v-7.9c-2.1-0.8-4.4-1.4-6.9-1.9c-2.5-0.5-4.8-0.7-7.1-0.7c-4.6,0-8.3,1-11.2,3.1
		c-2.9,2.1-4.4,4.7-4.4,7.9c0,3,1.1,5.5,3.4,7.5C619.1,103.2,621.9,104.1,625.2,104.1z"/>
	<path class="st1" d="M704.8,117.1c-2.8,0-5.7-0.2-8.8-0.7c-3-0.4-6-1.1-8.9-1.8c-2.9-0.8-5.7-1.8-8.3-2.9c-2.6-1.1-5-2.4-7-3.8
		l7.1-12c8.8,5.7,17.3,8.6,25.5,8.6c3.7,0,6.6-0.7,8.7-2c2.1-1.3,3.2-3.2,3.2-5.7c0-2.5-1.3-4.3-3.8-5.5c-2.5-1.2-6.7-2.5-12.6-3.9
		c-4.5-1.1-8.3-2.2-11.5-3.3c-3.2-1.1-5.7-2.5-7.7-4c-1.9-1.5-3.3-3.2-4.2-5.1c-0.9-1.9-1.3-4.2-1.3-6.9c0-3.5,0.7-6.7,2.1-9.5
		c1.4-2.8,3.4-5.2,5.9-7.2c2.5-2,5.5-3.5,8.8-4.6c3.4-1.1,7.1-1.6,11-1.6c4.9,0,9.8,0.8,14.7,2.3c4.9,1.5,9.4,3.6,13.7,6.3l-7.3,11
		c-3.9-2.5-7.5-4.2-11-5.3c-3.4-1.1-6.9-1.7-10.3-1.7c-3.2,0-5.8,0.6-8,1.8c-2.2,1.2-3.2,3.2-3.2,5.9c0,2.4,1,4.1,3.1,5.1
		c2.1,1.1,5.7,2.2,11,3.6c4.9,1.2,9.1,2.5,12.6,3.7c3.5,1.2,6.3,2.6,8.6,4.2s3.9,3.4,4.9,5.5c1,2.1,1.5,4.6,1.5,7.5
		c0,3.3-0.7,6.4-2,9.1c-1.4,2.7-3.3,5-5.7,6.9c-2.5,1.9-5.5,3.3-9,4.4C713.1,116.6,709.2,117.1,704.8,117.1z"/>
	<path class="st1" d="M776.8,117.1c-5.5,0-10.6-0.9-15-2.8c-4.5-1.9-8.3-4.5-11.5-7.7c-3.2-3.3-5.6-7-7.3-11.4
		c-1.7-4.3-2.6-8.8-2.6-13.6c0-4.9,0.8-9.6,2.5-13.9c1.7-4.4,4.1-8.2,7.3-11.5c3.2-3.3,7-5.9,11.6-7.9c4.5-1.9,9.6-2.9,15.2-2.9
		c5.6,0,10.7,1,15.1,2.9c4.4,1.9,8.2,4.5,11.4,7.8c3.1,3.3,5.5,7,7.1,11.4c1.6,4.3,2.4,8.8,2.4,13.5c0,1.1,0,2.2-0.1,3.3
		c0,1.1-0.2,1.9-0.3,2.6h-53.5c0.3,2.7,0.9,5.1,2,7.3c1.1,2.1,2.4,3.9,4.1,5.4c1.7,1.5,3.6,2.6,5.7,3.4c2.1,0.8,4.3,1.2,6.6,1.2
		c3.5,0,6.8-0.9,10-2.6c3.1-1.7,5.3-4,6.4-6.8L809,99c-2.6,5.3-6.6,9.6-12.2,13C791.2,115.4,784.5,117.1,776.8,117.1z M794.7,75.4
		c-0.4-5.2-2.4-9.3-5.7-12.5c-3.4-3.1-7.5-4.7-12.3-4.7c-2.4,0-4.6,0.4-6.7,1.3c-2.1,0.8-3.9,2-5.5,3.5c-1.6,1.5-2.9,3.3-3.9,5.4
		c-1,2.1-1.6,4.4-1.8,7H794.7z"/>
</g>
<path class="st3" d="M110.9,424.7c0,0-30.1-0.6-48.4,18.3l-4.9-4.9c0,0,17.2-18.7,53.3-20.5C110.9,417.6,110.9,424.7,110.9,424.7z"
	/>
</svg>
