<?xml version="1.0" encoding="UTF-8"?>
<svg id="Layer_2" data-name="Layer 2" xmlns="http://www.w3.org/2000/svg" viewBox="0 0 715.01 130.69">
  <defs>
    <style>
      .cls-1 {
        fill: #ff3d0d;
      }

      .cls-2 {
        fill: #fff;
      }
    </style>
  </defs>
  <g id="Layer_1-2" data-name="Layer 1">
    <g>
      <g>
        <polygon class="cls-1" points="170.52 39.21 181.99 0 38.24 0 0 130.69 143.76 130.69 166.7 52.27 114.42 52.27 104.86 84.95 131 84.95 127.25 97.78 35.77 97.78 45.26 65.34 71.39 65.34 79.04 39.21 105.18 39.21 108.81 26.14 122.07 26.14 118.25 39.21 170.52 39.21"/>
        <polygon class="cls-1" points="97.53 65.34 101.36 52.27 88.29 52.27 84.46 65.34 97.53 65.34"/>
      </g>
      <g>
        <path class="cls-2" d="M258.02,89.26c-.18.07-.36.16-.55.22-3.48,1.21-7.03,1.82-10.63,1.82-4.46,0-8.19-.76-11.17-2.29-2.98-1.53-5.16-3.68-6.54-6.46-1.38-2.78-1.89-6.01-1.53-9.69.39-4.07,1.4-7.85,3.03-11.33,1.63-3.48,3.78-6.52,6.46-9.1,2.67-2.58,5.79-4.58,9.33-5.99,3.54-1.41,7.43-2.11,11.65-2.11s7.92.67,11.08,2c3.16,1.33,5.86,3.72,8.11,7.16l18.07-13.27c-3.28-4.93-7.77-8.69-13.47-11.27-5.7-2.58-12.66-3.87-20.88-3.87-7.75,0-14.97,1.21-21.66,3.64-6.69,2.43-12.54,5.85-17.55,10.27-5.01,4.42-9.05,9.65-12.14,15.68-3.09,6.03-4.97,12.6-5.66,19.73-.69,7.12.41,13.41,3.29,18.85,2.88,5.44,7.28,9.69,13.21,12.74,5.93,3.05,13.08,4.58,21.46,4.58,6.18,0,12.14-.86,17.86-2.58,5.72-1.72,10.89-4.15,15.5-7.28l10.16-34.64h-20.55l-6.88,23.21Z"/>
        <path class="cls-2" d="M349.3,47.73c-4.74-2.43-10.51-3.64-17.32-3.64-7.59,0-14.48,1.61-20.66,4.81-6.18,3.21-11.22,7.59-15.13,13.15-3.9,5.56-6.19,11.86-6.87,18.9-.56,5.79.32,10.88,2.64,15.26,2.32,4.38,5.86,7.77,10.64,10.16,4.78,2.39,10.53,3.58,17.27,3.58,7.67,0,14.56-1.6,20.66-4.81,6.1-3.21,11.1-7.59,15.01-13.15,3.9-5.56,6.19-11.86,6.87-18.91.57-5.87-.29-10.96-2.58-15.26-2.29-4.3-5.8-7.67-10.53-10.1ZM339.76,74.15c-.36,3.68-1.31,6.87-2.86,9.57s-3.54,4.8-5.95,6.28c-2.41,1.49-5.11,2.23-8.08,2.23-3.84,0-6.7-1.13-8.59-3.41-1.89-2.27-2.66-5.24-2.31-8.92.35-3.6,1.3-6.75,2.85-9.45,1.55-2.7,3.55-4.79,6.01-6.28,2.45-1.49,5.17-2.23,8.14-2.23,3.83,0,6.68,1.17,8.53,3.52,1.85,2.35,2.6,5.24,2.27,8.69Z"/>
        <polygon class="cls-2" points="442.42 26.71 368.8 26.71 363.26 45.15 388.39 45.15 369.55 108.91 392.8 108.91 411.63 45.15 436.88 45.15 442.42 26.71"/>
        <path class="cls-2" d="M487.19,44.09c-6.18,0-11.71,1.08-16.57,3.23-2.71,1.2-5.13,2.9-7.33,5l2.08-7.17h-21.02l-18.84,63.76h22.31l9.01-30.06c1.6-5.24,4.04-9.04,7.32-11.39,3.28-2.35,7.35-3.52,12.2-3.52.86,0,1.66.02,2.4.06.74.04,1.61.14,2.61.29l5.82-20.2Z"/>
        <path class="cls-2" d="M539.33,45.15l-9.39,31.59c-1.33,4.85-3.4,8.44-6.2,10.74-2.81,2.31-6.13,3.46-9.96,3.46-3.45,0-5.75-1.1-6.9-3.29-1.16-2.19-1.15-5.28.02-9.28l9.9-33.23h-22.31l-10.33,35.23c-1.96,6.5-2.35,11.94-1.17,16.32,1.18,4.39,3.54,7.69,7.09,9.92,3.54,2.23,7.9,3.35,13.06,3.35,4.7,0,9.36-1.12,14-3.35,2.3-1.11,4.47-2.53,6.5-4.27l-1.96,6.56h21.14l18.84-63.76h-22.31Z"/>
        <path class="cls-2" d="M600.7,90c-2.48,1.33-5.16,2-8.06,2-3.99,0-6.96-1.13-8.89-3.41-1.93-2.27-2.72-5.24-2.37-8.92.33-3.44,1.31-6.5,2.94-9.16,1.63-2.66,3.71-4.74,6.24-6.22,2.53-1.49,5.28-2.23,8.26-2.23,2.82,0,5.22.67,7.2,2,1.98,1.33,3.42,3.48,4.31,6.46l19.77-8.93c-1.73-5.56-5.1-9.86-10.08-12.92-4.99-3.05-11.09-4.58-18.29-4.58-7.67,0-14.62,1.61-20.84,4.81-6.22,3.21-11.3,7.59-15.24,13.15-3.94,5.56-6.25,11.86-6.93,18.9-.56,5.79.34,10.88,2.69,15.26,2.35,4.38,5.92,7.77,10.7,10.16,4.78,2.39,10.57,3.58,17.38,3.58s13.35-1.45,19.15-4.34c5.8-2.9,10.47-6.93,14.03-12.09l-15.37-9.86c-1.92,2.9-4.12,5.01-6.6,6.34Z"/>
        <polygon class="cls-2" points="715.01 45.15 686.83 45.15 659.07 66.87 672.42 21.78 650.11 21.78 624.31 108.91 646.62 108.91 650.68 95.21 660.59 87.24 671.52 108.91 697.7 108.91 679.64 73.46 715.01 45.15"/>
      </g>
    </g>
  </g>
</svg>