<svg xmlns="http://www.w3.org/2000/svg" viewBox="0 0 137 137"><defs><style>.cls-1{fill:#fff;}.cls-2{fill:#4391ea;}</style></defs><g id="Layer_2" data-name="Layer 2"><g id="Layer_1-2" data-name="Layer 1"><path class="cls-1" d="M62.1,56.6l-5-5,.7-.7a78.54,78.54,0,0,1,53.1-20.6V23.5s-84.5,1.4-85.5,89.1H111V91.5a14.94,14.94,0,0,0-9.4,3.3,5.55,5.55,0,0,0-.8.6l-4.9-4.9a4.62,4.62,0,0,1,.7-.7A22.18,22.18,0,0,1,111,84.5V78.4a31.49,31.49,0,0,0-19.2,6.7,5.55,5.55,0,0,0-.8.6l-5-5c.3-.2.5-.4.8-.6A38.09,38.09,0,0,1,111,71.4V65A44.21,44.21,0,0,0,82.3,75.5c-.3.3-.6.5-.8.7l-5-5a5,5,0,0,1,.8-.7A51.56,51.56,0,0,1,111,57.9V51.3A58,58,0,0,0,72.6,65.8a5.72,5.72,0,0,0-.8.7l-4.9-5c.3-.3.6-.5.8-.7A65.18,65.18,0,0,1,111,44.3V37.4A71.91,71.91,0,0,0,62.8,55.9Z"/><path class="cls-2" d="M127,0H10A10,10,0,0,0,0,10V127a10,10,0,0,0,10,10H127a10,10,0,0,0,10-10V10A10,10,0,0,0,127,0ZM111,44.3A65.18,65.18,0,0,0,67.7,60.8c-.2.2-.5.4-.8.7l4.9,5a5.72,5.72,0,0,1,.8-.7A58,58,0,0,1,111,51.3v6.6A51.56,51.56,0,0,0,77.3,70.5a5,5,0,0,0-.8.7l5,5c.2-.2.5-.4.8-.7A44.21,44.21,0,0,1,111,65v6.4a38.09,38.09,0,0,0-24.2,8.7c-.3.2-.5.4-.8.6l5,5a5.55,5.55,0,0,1,.8-.6A31.49,31.49,0,0,1,111,78.4v6.1a22.18,22.18,0,0,0-14.4,5.3,4.62,4.62,0,0,0-.7.7l4.9,4.9a5.55,5.55,0,0,1,.8-.6,14.94,14.94,0,0,1,9.4-3.3v21.1H25.4c1-87.7,85.5-89.1,85.5-89.1v6.8A78.54,78.54,0,0,0,57.8,50.9l-.7.7,5,5,.7-.7A71.91,71.91,0,0,1,111,37.4Z"/></g></g></svg>