<svg xmlns="http://www.w3.org/2000/svg" viewBox="0 0 640 480" width="640" height="480"><g stroke-linejoin="round" stroke-linecap="round"><g transform="translate(0 0) scale(1.0)" opacity="1.0"><rect x="216" y="132" width="350" height="192" rx="14" fill="#bdbdbd" stroke="#dedede" stroke-width="10"/><rect x="236" y="154" width="310" height="148" rx="8" fill="#c9c9c9"/><path d="M256 182h270M256 230h270M256 278h270" stroke="#bdbdbd" stroke-width="6"/><path d="M216 324V190H96c-12 0-22 8-26 20L60 244v80z" fill="#bdbdbd" stroke="#dedede" stroke-width="10"/><path d="M104 206h88v52H84z" fill="#d9d9d9"/><rect x="60" y="324" width="506" height="18" rx="6" fill="#a9a9a9"/><rect x="56" y="292" width="18" height="30" rx="5" fill="#d9d9d9"/><circle cx="150" cy="366" r="40" fill="#8f8f8f" stroke="#dedede" stroke-width="8"/><circle cx="150" cy="366" r="16" fill="#d9d9d9"/><circle cx="470" cy="366" r="40" fill="#8f8f8f" stroke="#dedede" stroke-width="8"/><circle cx="470" cy="366" r="16" fill="#d9d9d9"/></g></g></svg>